<svg width="44" height="54" viewBox="0 0 44 54" fill="none" xmlns="http://www.w3.org/2000/svg">
<path d="M27.3333 0.333313H5.99999C4.5855 0.333313 3.22895 0.895216 2.22875 1.89541C1.22856 2.8956 0.666656 4.25216 0.666656 5.66665V48.3333C0.666656 51.2933 3.03999 53.6666 5.99999 53.6666H38C40.96 53.6666 43.3333 51.2933 43.3333 48.3333V16.3333L27.3333 0.333313ZM38 48.3333H5.99999V5.66665H24.6667V19H38V48.3333ZM15.44 36.7333L21.0133 42.3066L17.6 45.6666L8.66666 36.7333L17.6 27.8L21.0133 31.16L15.44 36.7333ZM35.3333 36.7333L26.4 45.6666L23.0133 42.3066L28.5867 36.7333L23.0133 31.16L26.4 27.8L35.3333 36.7333Z" fill="#2300B1"/>
</svg>
