<svg width="30" height="22" viewBox="0 0 30 22" fill="none" xmlns="http://www.w3.org/2000/svg">
<path d="M3.3157 0H26.6843C28.8889 0 30 1.04056 30 3.15697V18.0071C30 20.1058 28.8889 21.164 26.6843 21.164H3.3157C1.11111 21.164 0 20.1058 0 18.0071V3.15697C0 1.04056 1.11111 0 3.3157 0ZM14.9912 15.1675L26.8783 5.41446C27.3016 5.06173 27.6367 4.25044 27.1076 3.52734C26.5961 2.80423 25.6614 2.7866 25.0441 3.22751L14.9912 10.0353L4.95591 3.22751C4.33862 2.7866 3.40388 2.80423 2.89242 3.52734C2.36332 4.25044 2.69841 5.06173 3.12169 5.41446L14.9912 15.1675Z" fill="#0B6E4F"/>
</svg>
