<svg width="50" height="50" viewBox="0 0 50 50" fill="none" xmlns="http://www.w3.org/2000/svg">
<path d="M25.25 35.0625C25.25 35.3375 25.4625 35.5625 25.7188 35.5625H37.2812C37.5375 35.5625 37.75 35.3375 37.75 35.0625V32.0625C37.75 31.7875 37.5375 31.5625 37.2812 31.5625H25.7188C25.4625 31.5625 25.25 31.7875 25.25 32.0625V35.0625ZM13.0688 35.4437L25.0687 25.3812C25.3062 25.1812 25.3062 24.8125 25.0687 24.6125L13.0688 14.5562C12.9963 14.4946 12.9077 14.4551 12.8135 14.4424C12.7192 14.4296 12.6233 14.4442 12.5371 14.4843C12.4509 14.5245 12.378 14.5885 12.3271 14.6688C12.2763 14.7492 12.2495 14.8424 12.25 14.9375V18.8563C12.25 19.0063 12.3125 19.1437 12.4312 19.2375L19.2938 25L12.4312 30.7625C12.3754 30.8093 12.3303 30.8675 12.299 30.9333C12.2677 30.9991 12.251 31.0709 12.25 31.1437V35.0625C12.25 35.4875 12.7438 35.7188 13.0688 35.4437ZM48 0H2C0.89375 0 0 0.89375 0 2V48C0 49.1063 0.89375 50 2 50H48C49.1063 50 50 49.1063 50 48V2C50 0.89375 49.1063 0 48 0ZM45.5 45.5H4.5V4.5H45.5V45.5Z" fill="#2300B1"/>
</svg>
