<svg width="300" height="240" viewBox="0 0 300 240" fill="none" xmlns="http://www.w3.org/2000/svg">
<path d="M119.545 122.648C122.475 125.578 127.223 125.578 130.153 122.648L135.455 117.347C138.384 114.417 138.384 109.669 135.455 106.739L118.711 90L135.45 73.2562C138.38 70.3266 138.38 65.5781 135.45 62.6484L130.148 57.3469C127.219 54.4172 122.47 54.4172 119.541 57.3469L92.1937 84.6937C89.2641 87.6234 89.2641 92.3719 92.1937 95.3016L119.545 122.648ZM164.55 117.352L169.852 122.653C172.781 125.583 177.53 125.583 180.459 122.653L207.806 95.3063C210.736 92.3766 210.736 87.6281 207.806 84.6984L180.459 57.3516C177.53 54.4219 172.781 54.4219 169.852 57.3516L164.55 62.6531C161.62 65.5828 161.62 70.3312 164.55 73.2609L181.289 90L164.55 106.744C161.62 109.673 161.62 114.422 164.55 117.352ZM292.5 195H178.847C178.5 204.286 171.952 210 163.5 210H135C126.239 210 119.522 201.811 119.639 195H7.5C3.375 195 0 198.375 0 202.5V210C0 226.5 13.5 240 30 240H270C286.5 240 300 226.5 300 210V202.5C300 198.375 296.625 195 292.5 195ZM270 22.5C270 10.125 259.875 0 247.5 0H52.5C40.125 0 30 10.125 30 22.5V180H270V22.5ZM240 150H60V30H240V150Z" fill="#2300B1"/>
</svg>
